<svg xmlns="http://www.w3.org/2000/svg" viewBox="0 0 1580 1040" width="1580" height="1040" font-family="Segoe UI, Arial, sans-serif">
  <defs>
    <marker id="arrow" viewBox="0 0 10 10" refX="9" refY="5" markerWidth="7" markerHeight="7" orient="auto-start-reverse">
      <path d="M 0 0 L 10 5 L 0 10 z" fill="#6b7c92"/>
    </marker>
  </defs>

  <rect width="1580" height="1040" fill="#ffffff"/>

  <text x="790" y="34" text-anchor="middle" font-size="19" font-weight="700" fill="#12263f">Sơ đồ Use Case — Hệ thống ProstaAI</text>
  <text x="790" y="54" text-anchor="middle" font-size="12" fill="#6b7c92">Hỗ trợ chấm điểm Gleason trên tiêu bản sinh thiết tuyến tiền liệt</text>

  <!-- ===== system boundary ===== -->
  <rect x="196" y="72" width="1180" height="920" rx="10" fill="none" stroke="#1e3a5f" stroke-width="2"/>
  <text x="786" y="96" text-anchor="middle" font-size="14" font-weight="700" fill="#1e3a5f">HỆ THỐNG ProstaAI</text>

  <!-- group panels -->
  <rect x="220" y="150" width="360" height="825" rx="8" fill="#f7f9fc" stroke="#d8e0ea" stroke-dasharray="5 4"/>
  <text x="400" y="170" text-anchor="middle" font-size="12" font-weight="700" fill="#42536b">CỔNG BÁC SĨ (cổng 5173)</text>

  <rect x="982" y="150" width="372" height="470" rx="8" fill="#f7f9fc" stroke="#d8e0ea" stroke-dasharray="5 4"/>
  <text x="1168" y="170" text-anchor="middle" font-size="12" font-weight="700" fill="#42536b">CỔNG QUẢN TRỊ (cổng 5174)</text>

  <rect x="640" y="430" width="300" height="290" rx="8" fill="#eef4fb" stroke="#b9d0ea" stroke-dasharray="5 4"/>
  <text x="790" y="450" text-anchor="middle" font-size="12" font-weight="700" fill="#2f5d8f">QUY TRÌNH SUY DIỄN AI</text>

  <!-- ===== actors ===== -->
  <!-- Bác sĩ -->
  <g stroke="#1e3a5f" stroke-width="2" fill="none">
    <circle cx="96" cy="392" r="16"/>
    <line x1="96" y1="408" x2="96" y2="452"/>
    <line x1="70" y1="422" x2="122" y2="422"/>
    <line x1="96" y1="452" x2="76" y2="486"/>
    <line x1="96" y1="452" x2="116" y2="486"/>
  </g>
  <text x="96" y="508" text-anchor="middle" font-size="13" font-weight="700" fill="#12263f">Bác sĩ</text>
  <text x="96" y="524" text-anchor="middle" font-size="13" font-weight="700" fill="#12263f">giải phẫu bệnh</text>

  <!-- Camera: sits just below the doctor so its single association to the live-capture
       use case is short and does not cut across the whole doctor column. -->
  <g stroke="#6b7c92" stroke-width="2" fill="none">
    <circle cx="96" cy="606" r="14"/>
    <line x1="96" y1="620" x2="96" y2="658"/>
    <line x1="74" y1="632" x2="118" y2="632"/>
    <line x1="96" y1="658" x2="78" y2="686"/>
    <line x1="96" y1="658" x2="114" y2="686"/>
  </g>
  <text x="96" y="708" text-anchor="middle" font-size="12" fill="#42536b">«device»</text>
  <text x="96" y="724" text-anchor="middle" font-size="12" font-weight="600" fill="#42536b">Camera kính</text>
  <text x="96" y="740" text-anchor="middle" font-size="12" font-weight="600" fill="#42536b">hiển vi</text>

  <!-- Quản trị viên -->
  <g stroke="#1e3a5f" stroke-width="2" fill="none">
    <circle cx="1482" cy="292" r="16"/>
    <line x1="1482" y1="308" x2="1482" y2="352"/>
    <line x1="1456" y1="322" x2="1508" y2="322"/>
    <line x1="1482" y1="352" x2="1462" y2="386"/>
    <line x1="1482" y1="352" x2="1502" y2="386"/>
  </g>
  <text x="1482" y="408" text-anchor="middle" font-size="13" font-weight="700" fill="#12263f">Quản trị viên</text>

  <!-- Legacy system -->
  <g stroke="#6b7c92" stroke-width="2" fill="none">
    <circle cx="1482" cy="620" r="14"/>
    <line x1="1482" y1="634" x2="1482" y2="672"/>
    <line x1="1460" y1="646" x2="1504" y2="646"/>
    <line x1="1482" y1="672" x2="1464" y2="700"/>
    <line x1="1482" y1="672" x2="1500" y2="700"/>
  </g>
  <text x="1482" y="722" text-anchor="middle" font-size="12" fill="#42536b">«system»</text>
  <text x="1482" y="738" text-anchor="middle" font-size="12" font-weight="600" fill="#42536b">Phần mềm cũ</text>
  <text x="1482" y="754" text-anchor="middle" font-size="12" font-weight="600" fill="#42536b">ImageCapture</text>

  <!-- ===== shared use case ===== -->
  <ellipse cx="786" cy="126" rx="122" ry="25" fill="#ffffff" stroke="#2c4a6e" stroke-width="1.6"/>
  <text x="786" y="131" text-anchor="middle" font-size="12.5" fill="#12263f">Đăng nhập hệ thống</text>

  <!-- ===== doctor use cases ===== -->
  <g fill="#ffffff" stroke="#2c4a6e" stroke-width="1.5">
    <ellipse cx="400" cy="212" rx="150" ry="25"/>
    <ellipse cx="400" cy="272" rx="150" ry="25"/>
    <ellipse cx="400" cy="332" rx="150" ry="25"/>
    <ellipse cx="400" cy="392" rx="150" ry="25"/>
    <ellipse cx="400" cy="452" rx="150" ry="27"/>
    <ellipse cx="400" cy="516" rx="150" ry="25"/>
    <ellipse cx="400" cy="576" rx="150" ry="25"/>
    <ellipse cx="400" cy="636" rx="150" ry="25"/>
    <ellipse cx="400" cy="696" rx="150" ry="25"/>
    <ellipse cx="400" cy="758" rx="150" ry="27"/>
    <ellipse cx="400" cy="822" rx="150" ry="25"/>
    <ellipse cx="400" cy="882" rx="150" ry="25"/>
    <ellipse cx="400" cy="936" rx="150" ry="25"/>
  </g>
  <g text-anchor="middle" font-size="12.5" fill="#12263f">
    <text x="400" y="217">Xem tổng quan &amp; việc cần làm</text>
    <text x="400" y="277">Quản lý ca bệnh</text>
    <text x="400" y="337">Quản lý slide trong ca</text>
    <text x="400" y="397">Tải ảnh vi trường lên</text>
    <text x="400" y="448">Chụp ảnh trực tiếp</text>
    <text x="400" y="463">qua kính hiển vi</text>
    <text x="400" y="521">Xem tiêu bản (thu phóng sâu)</text>
    <text x="400" y="581">Chạy phân tích AI</text>
    <text x="400" y="641">Khoanh vùng thủ công</text>
    <text x="400" y="701">Đo khoảng cách trên tiêu bản</text>
    <text x="400" y="754">Lập / chỉnh sửa</text>
    <text x="400" y="769">đánh giá chẩn đoán</text>
    <text x="400" y="827">Đánh dấu cần hội chẩn</text>
    <text x="400" y="887">Xác nhận &amp; khóa đánh giá</text>
    <text x="400" y="941">Xem &amp; in phiếu kết quả</text>
  </g>

  <!-- ===== AI pipeline internals ===== -->
  <g fill="#ffffff" stroke="#4a7ab5" stroke-width="1.5">
    <ellipse cx="790" cy="486" rx="132" ry="24"/>
    <ellipse cx="790" cy="546" rx="132" ry="24"/>
    <ellipse cx="790" cy="606" rx="132" ry="24"/>
    <ellipse cx="790" cy="672" rx="132" ry="26"/>
  </g>
  <g text-anchor="middle" font-size="12" fill="#1c3f66">
    <text x="790" y="491">Phân đoạn mô 6 lớp</text>
    <text x="790" y="551">Phân loại 4 lớp Gleason</text>
    <text x="790" y="611">Hợp nhất ISUP (Stage 3)</text>
    <text x="790" y="668">Tổng hợp điểm Gleason</text>
    <text x="790" y="683">cấp ca bệnh</text>
  </g>

  <!-- other internal use cases -->
  <ellipse cx="790" cy="332" rx="128" ry="24" fill="#ffffff" stroke="#4a7ab5" stroke-width="1.5"/>
  <text x="790" y="337" text-anchor="middle" font-size="12" fill="#1c3f66">Tiền xử lý ảnh tự động</text>

  <ellipse cx="790" cy="392" rx="128" ry="24" fill="#ffffff" stroke="#4a7ab5" stroke-width="1.5"/>
  <text x="790" y="397" text-anchor="middle" font-size="12" fill="#1c3f66">Sinh tháp ảnh thu phóng</text>

  <ellipse cx="790" cy="840" rx="128" ry="24" fill="#ffffff" stroke="#4a7ab5" stroke-width="1.5"/>
  <text x="790" y="845" text-anchor="middle" font-size="12" fill="#1c3f66">Ghi nhật ký thao tác</text>

  <!-- ===== admin use cases ===== -->
  <g fill="#ffffff" stroke="#2c4a6e" stroke-width="1.5">
    <ellipse cx="1168" cy="212" rx="152" ry="25"/>
    <ellipse cx="1168" cy="272" rx="152" ry="25"/>
    <ellipse cx="1168" cy="332" rx="152" ry="25"/>
    <ellipse cx="1168" cy="392" rx="152" ry="25"/>
    <ellipse cx="1168" cy="454" rx="152" ry="27"/>
    <ellipse cx="1168" cy="518" rx="152" ry="25"/>
    <ellipse cx="1168" cy="578" rx="152" ry="25"/>
  </g>
  <g text-anchor="middle" font-size="12.5" fill="#12263f">
    <text x="1168" y="217">Xem tổng quan hệ thống</text>
    <text x="1168" y="277">Quản lý người dùng</text>
    <text x="1168" y="337">Xem nhật ký thao tác</text>
    <text x="1168" y="397">Quản lý mô hình AI</text>
    <text x="1168" y="450">Hiệu chỉnh µm/pixel</text>
    <text x="1168" y="465">theo vật kính</text>
    <text x="1168" y="523">Di trú dữ liệu từ hệ thống cũ</text>
    <text x="1168" y="583">Xuất thư viện (ẩn danh)</text>
  </g>

  <!-- ===== associations: doctor ===== -->
  <g stroke="#42536b" stroke-width="1.3" fill="none">
    <line x1="124" y1="430" x2="252" y2="215"/>
    <line x1="124" y1="430" x2="252" y2="276"/>
    <line x1="124" y1="430" x2="252" y2="336"/>
    <line x1="124" y1="430" x2="250" y2="392"/>
    <line x1="124" y1="440" x2="250" y2="452"/>
    <line x1="124" y1="446" x2="252" y2="512"/>
    <line x1="124" y1="446" x2="252" y2="572"/>
    <line x1="124" y1="452" x2="252" y2="632"/>
    <line x1="124" y1="452" x2="252" y2="692"/>
    <line x1="124" y1="456" x2="252" y2="754"/>
    <line x1="124" y1="458" x2="252" y2="818"/>
    <line x1="124" y1="460" x2="252" y2="878"/>
    <line x1="124" y1="462" x2="252" y2="932"/>
  </g>
  <!-- Login is routed up the margin and across above the panels; drawn straight it
       would cut through six use cases in the doctor column. -->
  <polyline points="96,370 96,126 664,126" fill="none" stroke="#42536b" stroke-width="1.3"/>

  <!-- camera -> live capture -->
  <line x1="120" y1="592" x2="256" y2="470" stroke="#6b7c92" stroke-width="1.3"/>

  <!-- ===== associations: admin ===== -->
  <g stroke="#42536b" stroke-width="1.3" fill="none">
    <line x1="1454" y1="330" x2="1320" y2="216"/>
    <line x1="1454" y1="330" x2="1320" y2="276"/>
    <line x1="1454" y1="336" x2="1320" y2="334"/>
    <line x1="1454" y1="340" x2="1320" y2="392"/>
    <line x1="1454" y1="344" x2="1320" y2="452"/>
    <line x1="1454" y1="348" x2="1320" y2="516"/>
    <line x1="1454" y1="352" x2="1320" y2="576"/>
  </g>
  <polyline points="1482,270 1482,126 908,126" fill="none" stroke="#42536b" stroke-width="1.3"/>

  <!-- legacy system -> migration -->
  <line x1="1456" y1="644" x2="1322" y2="530" stroke="#6b7c92" stroke-width="1.3"/>

  <!-- ===== include relationships ===== -->
  <g stroke="#7a8ba0" stroke-width="1.3" stroke-dasharray="6 4" fill="none" marker-end="url(#arrow)">
    <!-- run AI -> three stages -->
    <line x1="550" y1="572" x2="658" y2="492"/>
    <line x1="550" y1="576" x2="658" y2="546"/>
    <line x1="550" y1="580" x2="658" y2="602"/>
    <!-- upload / capture -> preprocessing -->
    <line x1="550" y1="388" x2="662" y2="340"/>
    <line x1="550" y1="446" x2="662" y2="348"/>
    <!-- view slide -> tile pyramid -->
    <line x1="550" y1="512" x2="662" y2="400"/>
    <!-- report -> case-level aggregation -->
    <line x1="550" y1="930" x2="664" y2="690"/>
    <!-- confirm review -> audit log. Only the two nearest links to the audit use case
         are drawn; every mutating use case includes it (see the note). -->
    <line x1="550" y1="826" x2="662" y2="836"/>
    <line x1="550" y1="884" x2="662" y2="846"/>
  </g>

  <g font-size="10.5" fill="#7a8ba0" font-style="italic">
    <text x="600" y="530" text-anchor="middle">«include»</text>
    <text x="602" y="376" text-anchor="middle">«include»</text>
    <text x="612" y="800" text-anchor="middle">«include»</text>
    <text x="606" y="866" text-anchor="middle">«include»</text>
  </g>

  <!-- note on audit -->
  <path d="M 640 892 h 300 v 66 l -12 12 h -288 z" fill="#fffbe9" stroke="#d9c98a"/>
  <path d="M 940 946 l -12 12 v -12 z" fill="#e8dcae" stroke="#d9c98a"/>
  <text x="654" y="912" font-size="11" fill="#6b5b23">Mọi use case làm thay đổi dữ liệu đều</text>
  <text x="654" y="928" font-size="11" fill="#6b5b23">«include» Ghi nhật ký thao tác. Sơ đồ chỉ vẽ</text>
  <text x="654" y="944" font-size="11" fill="#6b5b23">hai liên kết đại diện để giữ hình dễ đọc.</text>

  <!-- note on portals -->
  <path d="M 982 660 h 372 v 84 l -12 12 h -360 z" fill="#f4f7fb" stroke="#c6d3e2"/>
  <path d="M 1354 732 l -12 12 v -12 z" fill="#dde6f0" stroke="#c6d3e2"/>
  <text x="996" y="680" font-size="11" fill="#3d4f66">Hai cổng chạy trên hai origin khác nhau nên</text>
  <text x="996" y="696" font-size="11" fill="#3d4f66">hai phiên đăng nhập độc lập. Đây là ranh giới</text>
  <text x="996" y="712" font-size="11" fill="#3d4f66">phiên làm việc, không phải kiểm soát truy cập —</text>
  <text x="996" y="728" font-size="11" fill="#3d4f66">quyền thật do máy chủ cưỡng chế trên từng API.</text>

  <!-- legend -->
  <g>
    <rect x="982" y="792" width="372" height="106" rx="6" fill="#ffffff" stroke="#d8e0ea"/>
    <text x="996" y="812" font-size="11.5" font-weight="700" fill="#42536b">Chú giải</text>
    <ellipse cx="1014" cy="834" rx="16" ry="9" fill="#ffffff" stroke="#2c4a6e" stroke-width="1.4"/>
    <text x="1040" y="838" font-size="11" fill="#3d4f66">Use case do người dùng kích hoạt</text>
    <ellipse cx="1014" cy="858" rx="16" ry="9" fill="#ffffff" stroke="#4a7ab5" stroke-width="1.4"/>
    <text x="1040" y="862" font-size="11" fill="#3d4f66">Use case hệ thống tự thực hiện</text>
    <line x1="998" y1="882" x2="1030" y2="882" stroke="#7a8ba0" stroke-width="1.3" stroke-dasharray="6 4" marker-end="url(#arrow)"/>
    <text x="1040" y="886" font-size="11" fill="#3d4f66">Quan hệ «include»</text>
  </g>
</svg>
